<svg xmlns="http://www.w3.org/2000/svg" width="120" height="120" viewBox="0 0 120 120"><defs><linearGradient id="bgGradient" x1="0%" x2="100%" y1="0%" y2="100%"><stop offset="0%" style="stop-color:#e3f2fd;stop-opacity:1"/><stop offset="100%" style="stop-color:#bbdefb;stop-opacity:1"/></linearGradient><linearGradient id="shipGradient" x1="0%" x2="100%" y1="0%" y2="100%"><stop offset="0%" style="stop-color:#2196f3;stop-opacity:1"/><stop offset="100%" style="stop-color:#1976d2;stop-opacity:1"/></linearGradient></defs><rect width="120" height="120" fill="url(#bgGradient)" rx="12"/><g transform="translate(30, 40)"><path fill="url(#shipGradient)" d="M 5 35 L 0 30 L 0 20 L 60 20 L 60 30 L 55 35 Z"/><rect width="12" height="8" x="8" y="10" fill="#f44336" opacity=".9" rx="1"/><rect width="12" height="8" x="22" y="10" fill="#4caf50" opacity=".9" rx="1"/><rect width="12" height="8" x="36" y="10" fill="#ff9800" opacity=".9" rx="1"/><rect width="12" height="8" x="8" y="2" fill="#9c27b0" opacity=".9" rx="1"/><rect width="12" height="8" x="22" y="2" fill="#ffeb3b" opacity=".9" rx="1"/><rect width="12" height="8" x="36" y="2" fill="#00bcd4" opacity=".9" rx="1"/><line x1="14" x2="14" y1="3" y2="9" stroke="#fff" stroke-width=".5" opacity=".5"/><line x1="28" x2="28" y1="3" y2="9" stroke="#fff" stroke-width=".5" opacity=".5"/><line x1="42" x2="42" y1="3" y2="9" stroke="#fff" stroke-width=".5" opacity=".5"/><line x1="14" x2="14" y1="11" y2="17" stroke="#fff" stroke-width=".5" opacity=".5"/><line x1="28" x2="28" y1="11" y2="17" stroke="#fff" stroke-width=".5" opacity=".5"/><line x1="42" x2="42" y1="11" y2="17" stroke="#fff" stroke-width=".5" opacity=".5"/><rect width="8" height="13" x="48" y="5" fill="#1565c0" rx="1"/><rect width="2" height="2" x="50" y="7" fill="#bbdefb" opacity=".8" rx=".5"/><rect width="2" height="2" x="53" y="7" fill="#bbdefb" opacity=".8" rx=".5"/><line x1="5" x2="55" y1="35" y2="35" stroke="#0d47a1" stroke-width="1.5" opacity=".5"/><circle cx="15" cy="32" r="1.5" fill="#0d47a1" opacity=".3"/><circle cx="30" cy="32" r="1.5" fill="#0d47a1" opacity=".3"/><circle cx="45" cy="32" r="1.5" fill="#0d47a1" opacity=".3"/></g><g opacity=".3"><path fill="none" stroke="#2196f3" stroke-width="1.5" d="M 10 85 Q 15 82 20 85 T 30 85 T 40 85 T 50 85 T 60 85 T 70 85 T 80 85 T 90 85 T 100 85 T 110 85"/><path fill="none" stroke="#2196f3" stroke-width="1.5" d="M 10 90 Q 15 87 20 90 T 30 90 T 40 90 T 50 90 T 60 90 T 70 90 T 80 90 T 90 90 T 100 90 T 110 90"/></g><text x="60" y="108" fill="#1976d2" font-family="Arial, sans-serif" font-size="10" opacity=".6" text-anchor="middle">Armateur</text></svg>